<?xml version="1.0" standalone="no"?>
<!DOCTYPE svg PUBLIC "-//W3C//DTD SVG 1.1//EN" "http://www.w3.org/Graphics/SVG/1.1/DTD/svg11.dtd">
<svg version="1.1" xmlns="http://www.w3.org/2000/svg" viewBox="0 0 182.27833178125366 40.44900430595277" width="182.27833178125366" height="40.44900430595277"><!-- svg-source:excalidraw --><metadata></metadata><defs><style class="style-fonts">
      </style></defs><g stroke-linecap="round" transform="translate(10 10) rotate(0 9.490149431712098 9.490149431712084)"><path d="M18.98 9.49 C18.98 10.04, 18.93 10.6, 18.84 11.14 C18.74 11.68, 18.6 12.22, 18.41 12.74 C18.22 13.25, 17.98 13.76, 17.71 14.24 C17.43 14.71, 17.11 15.17, 16.76 15.59 C16.41 16.01, 16.01 16.41, 15.59 16.76 C15.17 17.11, 14.71 17.43, 14.24 17.71 C13.76 17.98, 13.25 18.22, 12.74 18.41 C12.22 18.6, 11.68 18.74, 11.14 18.84 C10.6 18.93, 10.04 18.98, 9.49 18.98 C8.94 18.98, 8.38 18.93, 7.84 18.84 C7.3 18.74, 6.76 18.6, 6.24 18.41 C5.73 18.22, 5.22 17.98, 4.75 17.71 C4.27 17.43, 3.81 17.11, 3.39 16.76 C2.97 16.41, 2.57 16.01, 2.22 15.59 C1.87 15.17, 1.55 14.71, 1.27 14.24 C1 13.76, 0.76 13.25, 0.57 12.74 C0.38 12.22, 0.24 11.68, 0.14 11.14 C0.05 10.6, 0 10.04, 0 9.49 C0 8.94, 0.05 8.38, 0.14 7.84 C0.24 7.3, 0.38 6.76, 0.57 6.24 C0.76 5.73, 1 5.22, 1.27 4.75 C1.55 4.27, 1.87 3.81, 2.22 3.39 C2.57 2.97, 2.97 2.57, 3.39 2.22 C3.81 1.87, 4.27 1.55, 4.75 1.27 C5.22 1, 5.73 0.76, 6.24 0.57 C6.76 0.38, 7.3 0.24, 7.84 0.14 C8.38 0.05, 8.94 0, 9.49 0 C10.04 0, 10.6 0.05, 11.14 0.14 C11.68 0.24, 12.22 0.38, 12.74 0.57 C13.25 0.76, 13.76 1, 14.24 1.27 C14.71 1.55, 15.17 1.87, 15.59 2.22 C16.01 2.57, 16.41 2.97, 16.76 3.39 C17.11 3.81, 17.43 4.27, 17.71 4.75 C17.98 5.22, 18.22 5.73, 18.41 6.24 C18.6 6.76, 18.74 7.3, 18.84 7.84 C18.93 8.38, 18.96 9.22, 18.98 9.49 C19 9.76, 19 9.22, 18.98 9.49" stroke="#1e1e1e" stroke-width="4" fill="none"></path></g><g stroke-linecap="round"><g transform="translate(30.040493481860494 19.040496409034347) rotate(0 13.428469739597915 0)"><path d="M0 0 C4.48 0, 22.38 0, 26.86 0 M0 0 C4.48 0, 22.38 0, 26.86 0" stroke="#1e1e1e" stroke-width="4" fill="none"></path></g></g><mask></mask><g stroke-linecap="round" transform="translate(57.74181827727284 10.631997293637312) rotate(0 9.490149431712098 9.490149431712084)"><path d="M18.98 9.49 C18.98 10.04, 18.93 10.6, 18.84 11.14 C18.74 11.68, 18.6 12.22, 18.41 12.74 C18.22 13.25, 17.98 13.76, 17.71 14.24 C17.43 14.71, 17.11 15.17, 16.76 15.59 C16.41 16.01, 16.01 16.41, 15.59 16.76 C15.17 17.11, 14.71 17.43, 14.24 17.71 C13.76 17.98, 13.25 18.22, 12.74 18.41 C12.22 18.6, 11.68 18.74, 11.14 18.84 C10.6 18.93, 10.04 18.98, 9.49 18.98 C8.94 18.98, 8.38 18.93, 7.84 18.84 C7.3 18.74, 6.76 18.6, 6.24 18.41 C5.73 18.22, 5.22 17.98, 4.75 17.71 C4.27 17.43, 3.81 17.11, 3.39 16.76 C2.97 16.41, 2.57 16.01, 2.22 15.59 C1.87 15.17, 1.55 14.71, 1.27 14.24 C1 13.76, 0.76 13.25, 0.57 12.74 C0.38 12.22, 0.24 11.68, 0.14 11.14 C0.05 10.6, 0 10.04, 0 9.49 C0 8.94, 0.05 8.38, 0.14 7.84 C0.24 7.3, 0.38 6.76, 0.57 6.24 C0.76 5.73, 1 5.22, 1.27 4.75 C1.55 4.27, 1.87 3.81, 2.22 3.39 C2.57 2.97, 2.97 2.57, 3.39 2.22 C3.81 1.87, 4.27 1.55, 4.75 1.27 C5.22 1, 5.73 0.76, 6.24 0.57 C6.76 0.38, 7.3 0.24, 7.84 0.14 C8.38 0.05, 8.94 0, 9.49 0 C10.04 0, 10.6 0.05, 11.14 0.14 C11.68 0.24, 12.22 0.38, 12.74 0.57 C13.25 0.76, 13.76 1, 14.24 1.27 C14.71 1.55, 15.17 1.87, 15.59 2.22 C16.01 2.57, 16.41 2.97, 16.76 3.39 C17.11 3.81, 17.43 4.27, 17.71 4.75 C17.98 5.22, 18.22 5.73, 18.41 6.24 C18.6 6.76, 18.74 7.3, 18.84 7.84 C18.93 8.38, 18.96 9.22, 18.98 9.49 C19 9.76, 19 9.22, 18.98 9.49" stroke="#1e1e1e" stroke-width="4" fill="none"></path></g><g stroke-linecap="round"><g transform="translate(77.80518510589059 19.566872272396438) rotate(0 13.428469739597915 0)"><path d="M0 0 C4.48 0, 22.38 0, 26.86 0 M0 0 C4.48 0, 22.38 0, 26.86 0" stroke="#1e1e1e" stroke-width="4" fill="none"></path></g></g><mask></mask><g stroke-linecap="round" transform="translate(105.50650990130293 11.158373156999403) rotate(0 9.490149431712098 9.490149431712084)"><path d="M18.98 9.49 C18.98 10.04, 18.93 10.6, 18.84 11.14 C18.74 11.68, 18.6 12.22, 18.41 12.74 C18.22 13.25, 17.98 13.76, 17.71 14.24 C17.43 14.71, 17.11 15.17, 16.76 15.59 C16.41 16.01, 16.01 16.41, 15.59 16.76 C15.17 17.11, 14.71 17.43, 14.24 17.71 C13.76 17.98, 13.25 18.22, 12.74 18.41 C12.22 18.6, 11.68 18.74, 11.14 18.84 C10.6 18.93, 10.04 18.98, 9.49 18.98 C8.94 18.98, 8.38 18.93, 7.84 18.84 C7.3 18.74, 6.76 18.6, 6.24 18.41 C5.73 18.22, 5.22 17.98, 4.75 17.71 C4.27 17.43, 3.81 17.11, 3.39 16.76 C2.97 16.41, 2.57 16.01, 2.22 15.59 C1.87 15.17, 1.55 14.71, 1.27 14.24 C1 13.76, 0.76 13.25, 0.57 12.74 C0.38 12.22, 0.24 11.68, 0.14 11.14 C0.05 10.6, 0 10.04, 0 9.49 C0 8.94, 0.05 8.38, 0.14 7.84 C0.24 7.3, 0.38 6.76, 0.57 6.24 C0.76 5.73, 1 5.22, 1.27 4.75 C1.55 4.27, 1.87 3.81, 2.22 3.39 C2.57 2.97, 2.97 2.57, 3.39 2.22 C3.81 1.87, 4.27 1.55, 4.75 1.27 C5.22 1, 5.73 0.76, 6.24 0.57 C6.76 0.38, 7.3 0.24, 7.84 0.14 C8.38 0.05, 8.94 0, 9.49 0 C10.04 0, 10.6 0.05, 11.14 0.14 C11.68 0.24, 12.22 0.38, 12.74 0.57 C13.25 0.76, 13.76 1, 14.24 1.27 C14.71 1.55, 15.17 1.87, 15.59 2.22 C16.01 2.57, 16.41 2.97, 16.76 3.39 C17.11 3.81, 17.43 4.27, 17.71 4.75 C17.98 5.22, 18.22 5.73, 18.41 6.24 C18.6 6.76, 18.74 7.3, 18.84 7.84 C18.93 8.38, 18.96 9.22, 18.98 9.49 C19 9.76, 19 9.22, 18.98 9.49" stroke="#1e1e1e" stroke-width="4" fill="none"></path></g><g stroke-linecap="round"><g transform="translate(125.59670812241711 19.87720455792561) rotate(0 13.428469739597915 0)"><path d="M0 0 C4.48 0, 22.38 0, 26.86 0 M0 0 C4.48 0, 22.38 0, 26.86 0" stroke="#1e1e1e" stroke-width="4" fill="none"></path></g></g><mask></mask><g stroke-linecap="round" transform="translate(153.29803291782946 11.468705442528574) rotate(0 9.490149431712098 9.490149431712084)"><path d="M18.98 9.49 C18.98 10.04, 18.93 10.6, 18.84 11.14 C18.74 11.68, 18.6 12.22, 18.41 12.74 C18.22 13.25, 17.98 13.76, 17.71 14.24 C17.43 14.71, 17.11 15.17, 16.76 15.59 C16.41 16.01, 16.01 16.41, 15.59 16.76 C15.17 17.11, 14.71 17.43, 14.24 17.71 C13.76 17.98, 13.25 18.22, 12.74 18.41 C12.22 18.6, 11.68 18.74, 11.14 18.84 C10.6 18.93, 10.04 18.98, 9.49 18.98 C8.94 18.98, 8.38 18.93, 7.84 18.84 C7.3 18.74, 6.76 18.6, 6.24 18.41 C5.73 18.22, 5.22 17.98, 4.75 17.71 C4.27 17.43, 3.81 17.11, 3.39 16.76 C2.97 16.41, 2.57 16.01, 2.22 15.59 C1.87 15.17, 1.55 14.71, 1.27 14.24 C1 13.76, 0.76 13.25, 0.57 12.74 C0.38 12.22, 0.24 11.68, 0.14 11.14 C0.05 10.6, 0 10.04, 0 9.49 C0 8.94, 0.05 8.38, 0.14 7.84 C0.24 7.3, 0.38 6.76, 0.57 6.24 C0.76 5.73, 1 5.22, 1.27 4.75 C1.55 4.27, 1.87 3.81, 2.22 3.39 C2.57 2.97, 2.97 2.57, 3.39 2.22 C3.81 1.87, 4.27 1.55, 4.75 1.27 C5.22 1, 5.73 0.76, 6.24 0.57 C6.76 0.38, 7.3 0.24, 7.84 0.14 C8.38 0.05, 8.94 0, 9.49 0 C10.04 0, 10.6 0.05, 11.14 0.14 C11.68 0.24, 12.22 0.38, 12.74 0.57 C13.25 0.76, 13.76 1, 14.24 1.27 C14.71 1.55, 15.17 1.87, 15.59 2.22 C16.01 2.57, 16.41 2.97, 16.76 3.39 C17.11 3.81, 17.43 4.27, 17.71 4.75 C17.98 5.22, 18.22 5.73, 18.41 6.24 C18.6 6.76, 18.74 7.3, 18.84 7.84 C18.93 8.38, 18.96 9.22, 18.98 9.49 C19 9.76, 19 9.22, 18.98 9.49" stroke="#1e1e1e" stroke-width="4" fill="none"></path></g></svg>